<svg xmlns="http://www.w3.org/2000/svg" width="144.083" height="144" id="youtube"><path d="M72.04 14.166C40.1 14.166 14.207 40.06 14.207 72c0 31.939 25.893 57.834 57.833 57.834 31.941 0 57.835-25.895 57.835-57.834 0-31.94-25.894-57.834-57.835-57.834zm32.384 70.865a8.05 8.05 0 0 1-8.049 8.05s-6.875 1-24.73 1c-17.958 0-24.271-1-24.271-1a8.05 8.05 0 0 1-8.051-8.05V58.468a8.05 8.05 0 0 1 8.051-8.05s6.313-1 24.251-1c17.875 0 24.75 1 24.75 1a8.05 8.05 0 0 1 8.049 8.05v26.563z"></path><path d="m62.019 84.496 21.954-12.675-21.954-12.675z"></path></svg>